<?xml version="1.0" encoding="UTF-8"?>
<svg id="Layer_1" data-name="Layer 1" xmlns="http://www.w3.org/2000/svg" xmlns:xlink="http://www.w3.org/1999/xlink" viewBox="0 0 1392 1139">
  <defs>
    <style>
      .cls-1 {
        fill: #a8fffe;
      }

      .cls-2 {
        fill: #300c50;
      }

      .cls-3 {
        mask: url(#mask-3);
      }

      .cls-4 {
        mask: url(#mask-9);
      }

      .cls-5 {
        mask: url(#mask-6);
      }

      .cls-6 {
        mask: url(#mask);
      }

      .cls-7 {
        fill: url(#linear-gradient);
      }
    </style>
    <linearGradient id="linear-gradient" x1="487.45" y1="1562.27" x2="1042.1" y2="1753.72" gradientTransform="translate(-523.58 3388.47) scale(1.76 -1.76)" gradientUnits="userSpaceOnUse">
      <stop offset="0" stop-color="#c835f8"/>
      <stop offset=".49" stop-color="#0049e7"/>
      <stop offset="1" stop-color="#5efaf7"/>
    </linearGradient>
    <mask id="mask" x="366.5" y="-8.77" width="896.95" height="454.98" maskUnits="userSpaceOnUse"/>
    <mask id="mask-3" x="139.89" y="574.21" width="980.65" height="573.9" maskUnits="userSpaceOnUse"/>
    <mask id="mask-6" x="811.99" y="134.95" width="588.8" height="595.03" maskUnits="userSpaceOnUse"/>
    <mask id="mask-9" x="-8.83" y="384.85" width="748.36" height="763.26" maskUnits="userSpaceOnUse"/>
  </defs>
  <path class="cls-7" d="M1308.95,713.32c-230.13,132.88-459.71,265.08-689.84,397.95-107.28,71.52-261.96-1.08-257.22-148.45H205.86c-31.29,0-56.89-25.6-56.89-56.89h0c0-31.29,25.6-56.89,56.89-56.89H496.67c31.29,0,56.89-25.6,56.89-56.89h0c0-31.29-25.6-56.89-56.89-56.89h-164.57c-31.29,0-56.89-25.6-56.89-56.89h0c0-31.29,25.6-56.89,56.89-56.89h439.67c31.29,0,56.89-25.6,56.89-56.89h0c0-31.29-25.6-56.89-56.89-56.89H57.13C25.84,507.71,.24,482.11,.24,450.82H.24c0-31.29,25.6-56.89,56.89-56.89H813.35c31.29,0,56.89-25.6,56.89-56.89h0c0-31.29-25.6-56.89-56.89-56.89H308.8c-31.29,0-56.89-25.6-56.89-56.89h0c0-31.29,25.6-56.89,56.89-56.89h52.83c-.14-130.17,141.27-206.15,248.68-144.12l699.05,403.64c107.41,62.04,112.42,222.41-.41,287.42h0Z"/>
  <g class="cls-6">
    <path class="cls-1" d="M751.99,393.93h61.36c31.29,0,56.89-25.6,56.89-56.89h0c0-31.29-25.6-56.89-56.89-56.89h-269.54c-65.56-50.66-122.45-112.02-168.23-181.36C413.9,12.37,523.35-27.99,610.31,22.26l644.06,371.94c-78.56,27.77-162.95,42.94-250.99,42.94s-172.7-15.3-251.39-43.21h0Z"/>
  </g>
  <g class="cls-3">
    <path class="cls-2" d="M1111.47,827.37c-164.17,94.54-328.19,189.09-492.36,283.9-107.28,71.52-261.96-1.08-257.22-148.45H205.86c-31.29,0-56.89-25.6-56.89-56.89h0c0-31.29,25.6-56.89,56.89-56.89H496.67c31.29,0,56.89-25.6,56.89-56.89h0c0-31.29-25.6-56.89-56.89-56.89h-164.57c-31.29,0-56.89-25.6-56.89-56.89h0c0-31.29,25.6-56.89,56.89-56.89h439.67c24.79,0,46.05-15.98,53.77-38.2,118.11,50.79,217.67,136.53,285.93,244.08h0Z"/>
  </g>
  <g class="cls-5">
    <path class="cls-1" d="M1308.95,713.32l-13.14,7.59c-192.34-58.38-348.38-200.47-425.58-383.86,0-14.49-5.55-27.77-14.63-37.93-17.34-49.3-29.12-101.32-34.54-155.09l488.29,281.87c107.41,62.04,112.42,222.41-.41,287.42Z"/>
  </g>
  <g class="cls-4">
    <path class="cls-2" d="M729.64,1047.47c-36.84,21.27-73.68,42.53-110.53,63.8-107.28,71.52-261.96-1.08-257.22-148.45H205.86c-31.29,0-56.89-25.6-56.89-56.89h0c0-31.29,25.6-56.89,56.89-56.89H496.67c31.29,0,56.89-25.6,56.89-56.89h0c0-31.29-25.6-56.89-56.89-56.89h-164.57c-31.29,0-56.89-25.6-56.89-56.89h0c0-31.29,25.6-56.89,56.89-56.89h298.53c63.66,115.54,99.83,248.28,99.83,389.42,0,12.32-.27,24.52-.81,36.57h0Zm-174.86-539.77H57.13C25.84,507.71,.24,482.11,.24,450.82H.24c0-31.29,25.6-56.89,56.89-56.89H444.52c40.36,34.27,77.34,72.33,110.26,113.78h0Z"/>
  </g>
</svg>